<?xml version="1.0" encoding="UTF-8" standalone="no"?>
<!DOCTYPE svg PUBLIC "-//W3C//DTD SVG 1.1//EN"
 "http://www.w3.org/Graphics/SVG/1.1/DTD/svg11.dtd">
<!-- Generated by graphviz version 2.50.0 (0)
 -->
<!-- Pages: 1 -->
<svg width="319pt" height="625pt"
 viewBox="0.00 0.00 319.00 625.00" xmlns="http://www.w3.org/2000/svg" xmlns:xlink="http://www.w3.org/1999/xlink">
<g id="graph0" class="graph" transform="scale(1 1) rotate(0) translate(4 621)">
<polygon fill="white" stroke="transparent" points="-4,4 -4,-621 315,-621 315,4 -4,4"/>
<g id="clust1" class="cluster">
<title>outer_cluster_22</title>
</g>
<g id="clust2" class="cluster">
<title>cluster_22</title>
<path fill="#ffffb3" stroke="black" stroke-dasharray="5,2" d="M92,-564C92,-564 128,-564 128,-564 134,-564 140,-570 140,-576 140,-576 140,-594 140,-594 140,-600 134,-606 128,-606 128,-606 92,-606 92,-606 86,-606 80,-600 80,-594 80,-594 80,-576 80,-576 80,-570 86,-564 92,-564"/>
</g>
<g id="clust4" class="cluster">
<title>outer_cluster_13</title>
</g>
<g id="clust5" class="cluster">
<title>cluster_13</title>
<path fill="#ffffb3" stroke="black" stroke-dasharray="5,2" d="M23,-90C23,-90 59,-90 59,-90 65,-90 71,-96 71,-102 71,-102 71,-120 71,-120 71,-126 65,-132 59,-132 59,-132 23,-132 23,-132 17,-132 11,-126 11,-120 11,-120 11,-102 11,-102 11,-96 17,-90 23,-90"/>
</g>
<g id="clust7" class="cluster">
<title>outer_cluster_1</title>
</g>
<g id="clust8" class="cluster">
<title>cluster_1</title>
<path fill="#ffffb3" stroke="black" stroke-dasharray="5,2" d="M147,-11C147,-11 183,-11 183,-11 189,-11 195,-17 195,-23 195,-23 195,-41 195,-41 195,-47 189,-53 183,-53 183,-53 147,-53 147,-53 141,-53 135,-47 135,-41 135,-41 135,-23 135,-23 135,-17 141,-11 147,-11"/>
</g>
<g id="clust10" class="cluster">
<title>outer_cluster_5</title>
</g>
<g id="clust11" class="cluster">
<title>cluster_5</title>
<path fill="#ffffb3" stroke="black" stroke-dasharray="5,2" d="M120,-169C120,-169 156,-169 156,-169 162,-169 168,-175 168,-181 168,-181 168,-199 168,-199 168,-205 162,-211 156,-211 156,-211 120,-211 120,-211 114,-211 108,-205 108,-199 108,-199 108,-181 108,-181 108,-175 114,-169 120,-169"/>
</g>
<g id="clust13" class="cluster">
<title>outer_cluster_12</title>
</g>
<g id="clust14" class="cluster">
<title>cluster_12</title>
<path fill="#ffffb3" stroke="black" stroke-dasharray="5,2" d="M120,-406C120,-406 156,-406 156,-406 162,-406 168,-412 168,-418 168,-418 168,-436 168,-436 168,-442 162,-448 156,-448 156,-448 120,-448 120,-448 114,-448 108,-442 108,-436 108,-436 108,-418 108,-418 108,-412 114,-406 120,-406"/>
</g>
<g id="clust16" class="cluster">
<title>outer_cluster_17</title>
</g>
<g id="clust17" class="cluster">
<title>cluster_17</title>
<path fill="#ffffb3" stroke="black" stroke-dasharray="5,2" d="M120,-248C120,-248 156,-248 156,-248 162,-248 168,-254 168,-260 168,-260 168,-278 168,-278 168,-284 162,-290 156,-290 156,-290 120,-290 120,-290 114,-290 108,-284 108,-278 108,-278 108,-260 108,-260 108,-254 114,-248 120,-248"/>
</g>
<g id="clust19" class="cluster">
<title>outer_cluster_14</title>
</g>
<g id="clust20" class="cluster">
<title>cluster_14</title>
<path fill="#ffffb3" stroke="black" stroke-dasharray="5,2" d="M25,-169C25,-169 61,-169 61,-169 67,-169 73,-175 73,-181 73,-181 73,-199 73,-199 73,-205 67,-211 61,-211 61,-211 25,-211 25,-211 19,-211 13,-205 13,-199 13,-199 13,-181 13,-181 13,-175 19,-169 25,-169"/>
</g>
<g id="clust22" class="cluster">
<title>outer_cluster_0</title>
</g>
<g id="clust23" class="cluster">
<title>cluster_0</title>
<path fill="#ffffb3" stroke="black" stroke-dasharray="5,2" d="M89,-90C89,-90 125,-90 125,-90 131,-90 137,-96 137,-102 137,-102 137,-120 137,-120 137,-126 131,-132 125,-132 125,-132 89,-132 89,-132 83,-132 77,-126 77,-120 77,-120 77,-102 77,-102 77,-96 83,-90 89,-90"/>
</g>
<g id="clust25" class="cluster">
<title>outer_cluster_15</title>
</g>
<g id="clust26" class="cluster">
<title>cluster_15</title>
<path fill="#ffffb3" stroke="black" stroke-dasharray="5,2" d="M34,-248C34,-248 70,-248 70,-248 76,-248 82,-254 82,-260 82,-260 82,-278 82,-278 82,-284 76,-290 70,-290 70,-290 34,-290 34,-290 28,-290 22,-284 22,-278 22,-278 22,-260 22,-260 22,-254 28,-248 34,-248"/>
</g>
<g id="clust28" class="cluster">
<title>outer_cluster_3</title>
</g>
<g id="clust29" class="cluster">
<title>cluster_3</title>
<path fill="#ffffb3" stroke="black" stroke-dasharray="5,2" d="M186,-169C186,-169 222,-169 222,-169 228,-169 234,-175 234,-181 234,-181 234,-199 234,-199 234,-205 228,-211 222,-211 222,-211 186,-211 186,-211 180,-211 174,-205 174,-199 174,-199 174,-181 174,-181 174,-175 180,-169 186,-169"/>
</g>
<g id="clust31" class="cluster">
<title>outer_cluster_35</title>
</g>
<g id="clust32" class="cluster">
<title>cluster_35</title>
<path fill="#ffffb3" stroke="black" stroke-dasharray="5,2" d="M252,-169C252,-169 288,-169 288,-169 294,-169 300,-175 300,-181 300,-181 300,-199 300,-199 300,-205 294,-211 288,-211 288,-211 252,-211 252,-211 246,-211 240,-205 240,-199 240,-199 240,-181 240,-181 240,-175 246,-169 252,-169"/>
</g>
<g id="clust34" class="cluster">
<title>outer_cluster_20</title>
</g>
<g id="clust35" class="cluster">
<title>cluster_20</title>
<path fill="#ffffb3" stroke="black" stroke-dasharray="5,2" d="M42,-406C42,-406 78,-406 78,-406 84,-406 90,-412 90,-418 90,-418 90,-436 90,-436 90,-442 84,-448 78,-448 78,-448 42,-448 42,-448 36,-448 30,-442 30,-436 30,-436 30,-418 30,-418 30,-412 36,-406 42,-406"/>
</g>
<g id="clust37" class="cluster">
<title>outer_cluster_23</title>
</g>
<g id="clust38" class="cluster">
<title>cluster_23</title>
<path fill="#ffffb3" stroke="black" stroke-dasharray="5,2" d="M155,-90C155,-90 191,-90 191,-90 197,-90 203,-96 203,-102 203,-102 203,-120 203,-120 203,-126 197,-132 191,-132 191,-132 155,-132 155,-132 149,-132 143,-126 143,-120 143,-120 143,-102 143,-102 143,-96 149,-90 155,-90"/>
</g>
<g id="clust40" class="cluster">
<title>outer_cluster_18</title>
</g>
<g id="clust41" class="cluster">
<title>cluster_18</title>
<path fill="#ffffb3" stroke="black" stroke-dasharray="5,2" d="M124,-327C124,-327 160,-327 160,-327 166,-327 172,-333 172,-339 172,-339 172,-357 172,-357 172,-363 166,-369 160,-369 160,-369 124,-369 124,-369 118,-369 112,-363 112,-357 112,-357 112,-339 112,-339 112,-333 118,-327 124,-327"/>
</g>
<g id="clust43" class="cluster">
<title>outer_cluster_2</title>
</g>
<g id="clust44" class="cluster">
<title>cluster_2</title>
<path fill="#ffffb3" stroke="black" stroke-dasharray="5,2" d="M56,-11C56,-11 92,-11 92,-11 98,-11 104,-17 104,-23 104,-23 104,-41 104,-41 104,-47 98,-53 92,-53 92,-53 56,-53 56,-53 50,-53 44,-47 44,-41 44,-41 44,-23 44,-23 44,-17 50,-11 56,-11"/>
</g>
<g id="clust46" class="cluster">
<title>outer_cluster_11</title>
</g>
<g id="clust47" class="cluster">
<title>cluster_11</title>
<path fill="#ffffb3" stroke="black" stroke-dasharray="5,2" d="M198,-248C198,-248 234,-248 234,-248 240,-248 246,-254 246,-260 246,-260 246,-278 246,-278 246,-284 240,-290 234,-290 234,-290 198,-290 198,-290 192,-290 186,-284 186,-278 186,-278 186,-260 186,-260 186,-254 192,-248 198,-248"/>
</g>
<g id="clust49" class="cluster">
<title>outer_cluster_21</title>
</g>
<g id="clust50" class="cluster">
<title>cluster_21</title>
<path fill="#ffffb3" stroke="black" stroke-dasharray="5,2" d="M73,-485C73,-485 109,-485 109,-485 115,-485 121,-491 121,-497 121,-497 121,-515 121,-515 121,-521 115,-527 109,-527 109,-527 73,-527 73,-527 67,-527 61,-521 61,-515 61,-515 61,-497 61,-497 61,-491 67,-485 73,-485"/>
</g>
<!-- 22&#45;&gt;12 -->
<g id="edge1" class="edge">
<title>22:s&#45;&gt;12</title>
<path fill="none" stroke="black" d="M102,-569C102,-549.52 115.97,-548.52 122,-530 130.64,-503.45 134.69,-471.43 136.54,-450.44"/>
<polygon fill="black" stroke="black" points="137.83,-453.23 136.96,-448 134.38,-452.63 137.83,-453.23"/>
</g>
<!-- 22&#45;&gt;21 -->
<g id="edge2" class="edge">
<title>22:s&#45;&gt;21</title>
<path fill="none" stroke="black" d="M118,-569C118,-554.7 111.89,-539.97 105.48,-528.45"/>
<polygon fill="black" stroke="black" points="108.77,-529.14 103.92,-527 106.38,-531.69 108.77,-529.14"/>
</g>
<!-- 12&#45;&gt;11 -->
<g id="edge7" class="edge">
<title>12:s&#45;&gt;11</title>
<path fill="none" stroke="black" d="M130,-411C130,-385.2 158.08,-393.05 173,-372 190.69,-347.03 203.01,-313.66 209.8,-292"/>
<polygon fill="black" stroke="black" points="209.68,-295.04 211.32,-290 206.9,-292.92 209.68,-295.04"/>
</g>
<!-- 12&#45;&gt;18 -->
<g id="edge8" class="edge">
<title>12:s&#45;&gt;18</title>
<path fill="none" stroke="black" d="M146,-411C146,-397.81 145.09,-383.08 144.13,-371.28"/>
<polygon fill="black" stroke="black" points="146.36,-373.58 143.7,-369 142.92,-374.24 146.36,-373.58"/>
</g>
<!-- 21&#45;&gt;0 -->
<g id="edge24" class="edge">
<title>21:s&#45;&gt;0</title>
<path fill="none" stroke="black" d="M99,-490C99,-427.33 99,-411.67 99,-349 99,-349 99,-349 99,-268 99,-220.32 102.77,-164.54 105.14,-134.29"/>
<polygon fill="black" stroke="black" points="106.41,-137.22 105.53,-132 102.96,-136.63 106.41,-137.22"/>
</g>
<!-- 21&#45;&gt;20 -->
<g id="edge23" class="edge">
<title>21:s&#45;&gt;20</title>
<path fill="none" stroke="black" d="M83,-490C83,-476.04 77.81,-461.35 72.36,-449.77"/>
<polygon fill="black" stroke="black" points="75.43,-450.94 71.02,-448 72.64,-453.05 75.43,-450.94"/>
</g>
<!-- 13&#45;&gt;1 -->
<g id="edge3" class="edge">
<title>13:s&#45;&gt;1</title>
<path fill="none" stroke="black" d="M33,-95C33,-89.48 94.27,-62.7 133.32,-46.2"/>
<polygon fill="black" stroke="black" points="131.53,-49.24 135,-45.24 129.79,-46.2 131.53,-49.24"/>
</g>
<!-- 13&#45;&gt;2 -->
<g id="edge4" class="edge">
<title>13:s&#45;&gt;2</title>
<path fill="none" stroke="black" d="M49,-95C49,-80.86 54.66,-66.14 60.6,-54.59"/>
<polygon fill="black" stroke="black" points="60.03,-57.93 61.96,-53 57.38,-55.65 60.03,-57.93"/>
</g>
<!-- 5&#45;&gt;0 -->
<g id="edge5" class="edge">
<title>5:s&#45;&gt;0</title>
<path fill="none" stroke="black" d="M130,-174C130,-160.04 124.81,-145.35 119.36,-133.77"/>
<polygon fill="black" stroke="black" points="122.43,-134.94 118.02,-132 119.64,-137.05 122.43,-134.94"/>
</g>
<!-- 5&#45;&gt;23 -->
<g id="edge6" class="edge">
<title>5:s&#45;&gt;23</title>
<path fill="none" stroke="black" d="M146,-174C146,-159.7 152.11,-144.97 158.52,-133.45"/>
<polygon fill="black" stroke="black" points="157.62,-136.69 160.08,-132 155.23,-134.14 157.62,-136.69"/>
</g>
<!-- 23&#45;&gt;1 -->
<g id="edge17" class="edge">
<title>23:s&#45;&gt;1</title>
<path fill="none" stroke="black" d="M165,-95C165,-81.84 165,-67.11 165,-55.3"/>
<polygon fill="black" stroke="black" points="166.75,-58 165,-53 163.25,-58 166.75,-58"/>
</g>
<!-- 23&#45;&gt;2 -->
<g id="edge18" class="edge">
<title>23:s&#45;&gt;2</title>
<path fill="none" stroke="black" d="M181,-95C181,-77.47 137.48,-57.09 105.95,-44.61"/>
<polygon fill="black" stroke="black" points="109.27,-44.26 104,-43.68 107.76,-47.42 109.27,-44.26"/>
</g>
<!-- 11&#45;&gt;5 -->
<g id="edge21" class="edge">
<title>11:s&#45;&gt;5</title>
<path fill="none" stroke="black" d="M208,-253C208,-241.76 187.5,-224.53 168.69,-211.08"/>
<polygon fill="black" stroke="black" points="172.31,-213.17 168,-210.1 169.46,-215.19 172.31,-213.17"/>
</g>
<!-- 11&#45;&gt;35 -->
<g id="edge22" class="edge">
<title>11:s&#45;&gt;35</title>
<path fill="none" stroke="black" d="M224,-253C224,-237.1 233.87,-222.63 244.47,-211.67"/>
<polygon fill="black" stroke="black" points="242.14,-214.54 246.08,-211 240.79,-211.32 242.14,-214.54"/>
</g>
<!-- 18&#45;&gt;17 -->
<g id="edge20" class="edge">
<title>18:s&#45;&gt;17</title>
<path fill="none" stroke="black" d="M150,-332C150,-318.69 147.3,-304.06 144.46,-292.36"/>
<polygon fill="black" stroke="black" points="147.11,-293.53 143.16,-290 144.05,-295.22 147.11,-293.53"/>
</g>
<!-- 18&#45;&gt;3 -->
<g id="edge19" class="edge">
<title>18:s&#45;&gt;3</title>
<path fill="none" stroke="black" d="M134,-332C134,-308.71 157.3,-313.13 169,-293 180.3,-273.56 177.71,-266.27 185,-245 188.57,-234.59 192.6,-223.09 196.03,-213.38"/>
<polygon fill="black" stroke="black" points="196.24,-216.07 197.77,-211 193.41,-214.01 196.24,-216.07"/>
</g>
<!-- 17&#45;&gt;5 -->
<g id="edge9" class="edge">
<title>17:s&#45;&gt;5</title>
<path fill="none" stroke="black" d="M138,-253C138,-239.84 138,-225.11 138,-213.3"/>
<polygon fill="black" stroke="black" points="139.75,-216 138,-211 136.25,-216 139.75,-216"/>
</g>
<!-- 14&#45;&gt;13 -->
<g id="edge10" class="edge">
<title>14:s&#45;&gt;13</title>
<path fill="none" stroke="black" d="M43,-174C43,-160.83 42.54,-146.1 42.07,-134.3"/>
<polygon fill="black" stroke="black" points="44.06,-136.81 41.85,-132 40.58,-137.14 44.06,-136.81"/>
</g>
<!-- 15&#45;&gt;0 -->
<g id="edge11" class="edge">
<title>15:s&#45;&gt;0</title>
<path fill="none" stroke="black" d="M44,-253C44,-231.13 63.82,-233.35 74,-214 87.64,-188.08 96.98,-155.48 102.15,-134.21"/>
<polygon fill="black" stroke="black" points="102.53,-137.24 103.32,-132 99.44,-135.61 102.53,-137.24"/>
</g>
<!-- 15&#45;&gt;14 -->
<g id="edge12" class="edge">
<title>15:s&#45;&gt;14</title>
<path fill="none" stroke="black" d="M60,-253C60,-239.33 56.11,-224.54 52.05,-212.84"/>
<polygon fill="black" stroke="black" points="54.79,-214.99 51.31,-211 51.55,-216.29 54.79,-214.99"/>
</g>
<!-- 3&#45;&gt;1 -->
<g id="edge14" class="edge">
<title>3:s&#45;&gt;1</title>
<path fill="none" stroke="black" d="M212,-174C212,-135.17 217.63,-123.36 204,-87 199.53,-75.06 191.67,-63.39 184.18,-53.97"/>
<polygon fill="black" stroke="black" points="187.97,-54.83 183,-53 185.75,-57.53 187.97,-54.83"/>
</g>
<!-- 3&#45;&gt;0 -->
<g id="edge13" class="edge">
<title>3:s&#45;&gt;0</title>
<path fill="none" stroke="black" d="M196,-174C196,-172.16 162.96,-149.55 137.14,-132.16"/>
<polygon fill="black" stroke="black" points="139.47,-135.88 137,-131.2 136.01,-136.4 139.47,-135.88"/>
</g>
<!-- 20&#45;&gt;18 -->
<g id="edge16" class="edge">
<title>20:s&#45;&gt;18</title>
<path fill="none" stroke="black" d="M68,-411C68,-387.47 90.25,-371.1 110.35,-361.12"/>
<polygon fill="black" stroke="black" points="108.91,-364.27 112,-359.96 106.9,-361.4 108.91,-364.27"/>
</g>
<!-- 20&#45;&gt;15 -->
<g id="edge15" class="edge">
<title>20:s&#45;&gt;15</title>
<path fill="none" stroke="black" d="M52,-411C52,-369.23 52,-320.51 52,-292.65"/>
<polygon fill="black" stroke="black" points="53.75,-295 52,-290 50.25,-295 53.75,-295"/>
</g>
<!-- 22 -->
<g id="node1" class="node">
<title>22</title>
<g id="a_node1"><a xlink:title="22: 22">
<path fill="white" stroke="transparent" d="M103.67,-569C103.67,-569 116.33,-569 116.33,-569 121.67,-569 127,-574.33 127,-579.67 127,-579.67 127,-590.33 127,-590.33 127,-595.67 121.67,-601 116.33,-601 116.33,-601 103.67,-601 103.67,-601 98.33,-601 93,-595.67 93,-590.33 93,-590.33 93,-579.67 93,-579.67 93,-574.33 98.33,-569 103.67,-569"/>
<text text-anchor="start" x="98" y="-581.3" font-family="Helvetica,sans-Serif" font-size="14.00">root</text>
<path fill="none" stroke="black" d="M103.67,-569C103.67,-569 116.33,-569 116.33,-569 121.67,-569 127,-574.33 127,-579.67 127,-579.67 127,-590.33 127,-590.33 127,-595.67 121.67,-601 116.33,-601 116.33,-601 103.67,-601 103.67,-601 98.33,-601 93,-595.67 93,-590.33 93,-590.33 93,-579.67 93,-579.67 93,-574.33 98.33,-569 103.67,-569"/>
</a>
</g>
</g>
<!-- 12 -->
<g id="node2" class="node">
<title>12</title>
<g id="a_node2"><a xlink:title="12: 12">
<path fill="white" stroke="transparent" d="M132.67,-411C132.67,-411 143.33,-411 143.33,-411 148.67,-411 154,-416.33 154,-421.67 154,-421.67 154,-432.33 154,-432.33 154,-437.67 148.67,-443 143.33,-443 143.33,-443 132.67,-443 132.67,-443 127.33,-443 122,-437.67 122,-432.33 122,-432.33 122,-421.67 122,-421.67 122,-416.33 127.33,-411 132.67,-411"/>
<text text-anchor="start" x="133" y="-423.3" font-family="Helvetica,sans-Serif" font-size="14.00">&amp;</text>
<path fill="none" stroke="black" d="M132.67,-411C132.67,-411 143.33,-411 143.33,-411 148.67,-411 154,-416.33 154,-421.67 154,-421.67 154,-432.33 154,-432.33 154,-437.67 148.67,-443 143.33,-443 143.33,-443 132.67,-443 132.67,-443 127.33,-443 122,-437.67 122,-432.33 122,-432.33 122,-421.67 122,-421.67 122,-416.33 127.33,-411 132.67,-411"/>
</a>
</g>
</g>
<!-- 21 -->
<g id="node3" class="node">
<title>21</title>
<g id="a_node3"><a xlink:title="21: 21">
<path fill="white" stroke="transparent" d="M85.67,-490C85.67,-490 96.33,-490 96.33,-490 101.67,-490 107,-495.33 107,-500.67 107,-500.67 107,-511.33 107,-511.33 107,-516.67 101.67,-522 96.33,-522 96.33,-522 85.67,-522 85.67,-522 80.33,-522 75,-516.67 75,-511.33 75,-511.33 75,-500.67 75,-500.67 75,-495.33 80.33,-490 85.67,-490"/>
<text text-anchor="start" x="86" y="-502.3" font-family="Helvetica,sans-Serif" font-size="14.00">&amp;</text>
<path fill="none" stroke="black" d="M85.67,-490C85.67,-490 96.33,-490 96.33,-490 101.67,-490 107,-495.33 107,-500.67 107,-500.67 107,-511.33 107,-511.33 107,-516.67 101.67,-522 96.33,-522 96.33,-522 85.67,-522 85.67,-522 80.33,-522 75,-516.67 75,-511.33 75,-511.33 75,-500.67 75,-500.67 75,-495.33 80.33,-490 85.67,-490"/>
</a>
</g>
</g>
<!-- 13 -->
<g id="node4" class="node">
<title>13</title>
<g id="a_node4"><a xlink:title="13: 13">
<path fill="white" stroke="transparent" d="M35.67,-95C35.67,-95 46.33,-95 46.33,-95 51.67,-95 57,-100.33 57,-105.67 57,-105.67 57,-116.33 57,-116.33 57,-121.67 51.67,-127 46.33,-127 46.33,-127 35.67,-127 35.67,-127 30.33,-127 25,-121.67 25,-116.33 25,-116.33 25,-105.67 25,-105.67 25,-100.33 30.33,-95 35.67,-95"/>
<text text-anchor="start" x="38" y="-107.3" font-family="Helvetica,sans-Serif" font-size="14.00">*</text>
<path fill="none" stroke="black" d="M35.67,-95C35.67,-95 46.33,-95 46.33,-95 51.67,-95 57,-100.33 57,-105.67 57,-105.67 57,-116.33 57,-116.33 57,-121.67 51.67,-127 46.33,-127 46.33,-127 35.67,-127 35.67,-127 30.33,-127 25,-121.67 25,-116.33 25,-116.33 25,-105.67 25,-105.67 25,-100.33 30.33,-95 35.67,-95"/>
</a>
</g>
</g>
<!-- 1 -->
<g id="node5" class="node">
<title>1</title>
<g id="a_node5"><a xlink:title="1: 1">
<path fill="white" stroke="transparent" d="M159.67,-16C159.67,-16 170.33,-16 170.33,-16 175.67,-16 181,-21.33 181,-26.67 181,-26.67 181,-37.33 181,-37.33 181,-42.67 175.67,-48 170.33,-48 170.33,-48 159.67,-48 159.67,-48 154.33,-48 149,-42.67 149,-37.33 149,-37.33 149,-26.67 149,-26.67 149,-21.33 154.33,-16 159.67,-16"/>
<text text-anchor="start" x="161.5" y="-28.3" font-family="Helvetica,sans-Serif" font-size="14.00">y</text>
<path fill="none" stroke="black" d="M159.67,-16C159.67,-16 170.33,-16 170.33,-16 175.67,-16 181,-21.33 181,-26.67 181,-26.67 181,-37.33 181,-37.33 181,-42.67 175.67,-48 170.33,-48 170.33,-48 159.67,-48 159.67,-48 154.33,-48 149,-42.67 149,-37.33 149,-37.33 149,-26.67 149,-26.67 149,-21.33 154.33,-16 159.67,-16"/>
</a>
</g>
</g>
<!-- 2 -->
<g id="node6" class="node">
<title>2</title>
<g id="a_node6"><a xlink:title="2: 2">
<path fill="white" stroke="transparent" d="M68.67,-16C68.67,-16 79.33,-16 79.33,-16 84.67,-16 90,-21.33 90,-26.67 90,-26.67 90,-37.33 90,-37.33 90,-42.67 84.67,-48 79.33,-48 79.33,-48 68.67,-48 68.67,-48 63.33,-48 58,-42.67 58,-37.33 58,-37.33 58,-26.67 58,-26.67 58,-21.33 63.33,-16 68.67,-16"/>
<text text-anchor="start" x="70.5" y="-28.3" font-family="Helvetica,sans-Serif" font-size="14.00">z</text>
<path fill="none" stroke="black" d="M68.67,-16C68.67,-16 79.33,-16 79.33,-16 84.67,-16 90,-21.33 90,-26.67 90,-26.67 90,-37.33 90,-37.33 90,-42.67 84.67,-48 79.33,-48 79.33,-48 68.67,-48 68.67,-48 63.33,-48 58,-42.67 58,-37.33 58,-37.33 58,-26.67 58,-26.67 58,-21.33 63.33,-16 68.67,-16"/>
</a>
</g>
</g>
<!-- 5 -->
<g id="node7" class="node">
<title>5</title>
<g id="a_node7"><a xlink:title="5: 5">
<path fill="white" stroke="transparent" d="M132.67,-174C132.67,-174 143.33,-174 143.33,-174 148.67,-174 154,-179.33 154,-184.67 154,-184.67 154,-195.33 154,-195.33 154,-200.67 148.67,-206 143.33,-206 143.33,-206 132.67,-206 132.67,-206 127.33,-206 122,-200.67 122,-195.33 122,-195.33 122,-184.67 122,-184.67 122,-179.33 127.33,-174 132.67,-174"/>
<text text-anchor="start" x="135" y="-186.3" font-family="Helvetica,sans-Serif" font-size="14.00">*</text>
<path fill="none" stroke="black" d="M132.67,-174C132.67,-174 143.33,-174 143.33,-174 148.67,-174 154,-179.33 154,-184.67 154,-184.67 154,-195.33 154,-195.33 154,-200.67 148.67,-206 143.33,-206 143.33,-206 132.67,-206 132.67,-206 127.33,-206 122,-200.67 122,-195.33 122,-195.33 122,-184.67 122,-184.67 122,-179.33 127.33,-174 132.67,-174"/>
</a>
</g>
</g>
<!-- 0 -->
<g id="node8" class="node">
<title>0</title>
<g id="a_node8"><a xlink:title="0: 0">
<path fill="white" stroke="transparent" d="M101.67,-95C101.67,-95 112.33,-95 112.33,-95 117.67,-95 123,-100.33 123,-105.67 123,-105.67 123,-116.33 123,-116.33 123,-121.67 117.67,-127 112.33,-127 112.33,-127 101.67,-127 101.67,-127 96.33,-127 91,-121.67 91,-116.33 91,-116.33 91,-105.67 91,-105.67 91,-100.33 96.33,-95 101.67,-95"/>
<text text-anchor="start" x="103.5" y="-107.3" font-family="Helvetica,sans-Serif" font-size="14.00">x</text>
<path fill="none" stroke="black" d="M101.67,-95C101.67,-95 112.33,-95 112.33,-95 117.67,-95 123,-100.33 123,-105.67 123,-105.67 123,-116.33 123,-116.33 123,-121.67 117.67,-127 112.33,-127 112.33,-127 101.67,-127 101.67,-127 96.33,-127 91,-121.67 91,-116.33 91,-116.33 91,-105.67 91,-105.67 91,-100.33 96.33,-95 101.67,-95"/>
</a>
</g>
</g>
<!-- 23 -->
<g id="node9" class="node">
<title>23</title>
<g id="a_node9"><a xlink:title="23: 23">
<path fill="white" stroke="transparent" d="M167.67,-95C167.67,-95 178.33,-95 178.33,-95 183.67,-95 189,-100.33 189,-105.67 189,-105.67 189,-116.33 189,-116.33 189,-121.67 183.67,-127 178.33,-127 178.33,-127 167.67,-127 167.67,-127 162.33,-127 157,-121.67 157,-116.33 157,-116.33 157,-105.67 157,-105.67 157,-100.33 162.33,-95 167.67,-95"/>
<text text-anchor="start" x="168.5" y="-107.3" font-family="Helvetica,sans-Serif" font-size="14.00">+</text>
<path fill="none" stroke="black" d="M167.67,-95C167.67,-95 178.33,-95 178.33,-95 183.67,-95 189,-100.33 189,-105.67 189,-105.67 189,-116.33 189,-116.33 189,-121.67 183.67,-127 178.33,-127 178.33,-127 167.67,-127 167.67,-127 162.33,-127 157,-121.67 157,-116.33 157,-116.33 157,-105.67 157,-105.67 157,-100.33 162.33,-95 167.67,-95"/>
</a>
</g>
</g>
<!-- 11 -->
<g id="node10" class="node">
<title>11</title>
<g id="a_node10"><a xlink:title="11: 11">
<path fill="white" stroke="transparent" d="M210.67,-253C210.67,-253 221.33,-253 221.33,-253 226.67,-253 232,-258.33 232,-263.67 232,-263.67 232,-274.33 232,-274.33 232,-279.67 226.67,-285 221.33,-285 221.33,-285 210.67,-285 210.67,-285 205.33,-285 200,-279.67 200,-274.33 200,-274.33 200,-263.67 200,-263.67 200,-258.33 205.33,-253 210.67,-253"/>
<text text-anchor="start" x="211" y="-265.3" font-family="Helvetica,sans-Serif" font-size="14.00">&amp;</text>
<path fill="none" stroke="black" d="M210.67,-253C210.67,-253 221.33,-253 221.33,-253 226.67,-253 232,-258.33 232,-263.67 232,-263.67 232,-274.33 232,-274.33 232,-279.67 226.67,-285 221.33,-285 221.33,-285 210.67,-285 210.67,-285 205.33,-285 200,-279.67 200,-274.33 200,-274.33 200,-263.67 200,-263.67 200,-258.33 205.33,-253 210.67,-253"/>
</a>
</g>
</g>
<!-- 18 -->
<g id="node11" class="node">
<title>18</title>
<g id="a_node11"><a xlink:title="18: 18">
<path fill="white" stroke="transparent" d="M136.67,-332C136.67,-332 147.33,-332 147.33,-332 152.67,-332 158,-337.33 158,-342.67 158,-342.67 158,-353.33 158,-353.33 158,-358.67 152.67,-364 147.33,-364 147.33,-364 136.67,-364 136.67,-364 131.33,-364 126,-358.67 126,-353.33 126,-353.33 126,-342.67 126,-342.67 126,-337.33 131.33,-332 136.67,-332"/>
<text text-anchor="start" x="137.5" y="-344.3" font-family="Helvetica,sans-Serif" font-size="14.00">+</text>
<path fill="none" stroke="black" d="M136.67,-332C136.67,-332 147.33,-332 147.33,-332 152.67,-332 158,-337.33 158,-342.67 158,-342.67 158,-353.33 158,-353.33 158,-358.67 152.67,-364 147.33,-364 147.33,-364 136.67,-364 136.67,-364 131.33,-364 126,-358.67 126,-353.33 126,-353.33 126,-342.67 126,-342.67 126,-337.33 131.33,-332 136.67,-332"/>
</a>
</g>
</g>
<!-- 17 -->
<g id="node12" class="node">
<title>17</title>
<g id="a_node12"><a xlink:title="17: 17">
<path fill="white" stroke="transparent" d="M132.67,-253C132.67,-253 143.33,-253 143.33,-253 148.67,-253 154,-258.33 154,-263.67 154,-263.67 154,-274.33 154,-274.33 154,-279.67 148.67,-285 143.33,-285 143.33,-285 132.67,-285 132.67,-285 127.33,-285 122,-279.67 122,-274.33 122,-274.33 122,-263.67 122,-263.67 122,-258.33 127.33,-253 132.67,-253"/>
<text text-anchor="start" x="136" y="-265.3" font-family="Helvetica,sans-Serif" font-size="14.00">!</text>
<path fill="none" stroke="black" d="M132.67,-253C132.67,-253 143.33,-253 143.33,-253 148.67,-253 154,-258.33 154,-263.67 154,-263.67 154,-274.33 154,-274.33 154,-279.67 148.67,-285 143.33,-285 143.33,-285 132.67,-285 132.67,-285 127.33,-285 122,-279.67 122,-274.33 122,-274.33 122,-263.67 122,-263.67 122,-258.33 127.33,-253 132.67,-253"/>
</a>
</g>
</g>
<!-- 14 -->
<g id="node13" class="node">
<title>14</title>
<g id="a_node13"><a xlink:title="14: 14">
<path fill="white" stroke="transparent" d="M37.67,-174C37.67,-174 48.33,-174 48.33,-174 53.67,-174 59,-179.33 59,-184.67 59,-184.67 59,-195.33 59,-195.33 59,-200.67 53.67,-206 48.33,-206 48.33,-206 37.67,-206 37.67,-206 32.33,-206 27,-200.67 27,-195.33 27,-195.33 27,-184.67 27,-184.67 27,-179.33 32.33,-174 37.67,-174"/>
<text text-anchor="start" x="41" y="-186.3" font-family="Helvetica,sans-Serif" font-size="14.00">!</text>
<path fill="none" stroke="black" d="M37.67,-174C37.67,-174 48.33,-174 48.33,-174 53.67,-174 59,-179.33 59,-184.67 59,-184.67 59,-195.33 59,-195.33 59,-200.67 53.67,-206 48.33,-206 48.33,-206 37.67,-206 37.67,-206 32.33,-206 27,-200.67 27,-195.33 27,-195.33 27,-184.67 27,-184.67 27,-179.33 32.33,-174 37.67,-174"/>
</a>
</g>
</g>
<!-- 15 -->
<g id="node14" class="node">
<title>15</title>
<g id="a_node14"><a xlink:title="15: 15">
<path fill="white" stroke="transparent" d="M46.67,-253C46.67,-253 57.33,-253 57.33,-253 62.67,-253 68,-258.33 68,-263.67 68,-263.67 68,-274.33 68,-274.33 68,-279.67 62.67,-285 57.33,-285 57.33,-285 46.67,-285 46.67,-285 41.33,-285 36,-279.67 36,-274.33 36,-274.33 36,-263.67 36,-263.67 36,-258.33 41.33,-253 46.67,-253"/>
<text text-anchor="start" x="49" y="-265.3" font-family="Helvetica,sans-Serif" font-size="14.00">*</text>
<path fill="none" stroke="black" d="M46.67,-253C46.67,-253 57.33,-253 57.33,-253 62.67,-253 68,-258.33 68,-263.67 68,-263.67 68,-274.33 68,-274.33 68,-279.67 62.67,-285 57.33,-285 57.33,-285 46.67,-285 46.67,-285 41.33,-285 36,-279.67 36,-274.33 36,-274.33 36,-263.67 36,-263.67 36,-258.33 41.33,-253 46.67,-253"/>
</a>
</g>
</g>
<!-- 3 -->
<g id="node15" class="node">
<title>3</title>
<g id="a_node15"><a xlink:title="3: 3">
<path fill="white" stroke="transparent" d="M198.67,-174C198.67,-174 209.33,-174 209.33,-174 214.67,-174 220,-179.33 220,-184.67 220,-184.67 220,-195.33 220,-195.33 220,-200.67 214.67,-206 209.33,-206 209.33,-206 198.67,-206 198.67,-206 193.33,-206 188,-200.67 188,-195.33 188,-195.33 188,-184.67 188,-184.67 188,-179.33 193.33,-174 198.67,-174"/>
<text text-anchor="start" x="201" y="-186.3" font-family="Helvetica,sans-Serif" font-size="14.00">*</text>
<path fill="none" stroke="black" d="M198.67,-174C198.67,-174 209.33,-174 209.33,-174 214.67,-174 220,-179.33 220,-184.67 220,-184.67 220,-195.33 220,-195.33 220,-200.67 214.67,-206 209.33,-206 209.33,-206 198.67,-206 198.67,-206 193.33,-206 188,-200.67 188,-195.33 188,-195.33 188,-184.67 188,-184.67 188,-179.33 193.33,-174 198.67,-174"/>
</a>
</g>
</g>
<!-- 35 -->
<g id="node16" class="node">
<title>35</title>
<g id="a_node16"><a xlink:title="35: 35">
<path fill="white" stroke="transparent" d="M264.67,-174C264.67,-174 275.33,-174 275.33,-174 280.67,-174 286,-179.33 286,-184.67 286,-184.67 286,-195.33 286,-195.33 286,-200.67 280.67,-206 275.33,-206 275.33,-206 264.67,-206 264.67,-206 259.33,-206 254,-200.67 254,-195.33 254,-195.33 254,-184.67 254,-184.67 254,-179.33 259.33,-174 264.67,-174"/>
<text text-anchor="start" x="266" y="-186.3" font-family="Helvetica,sans-Serif" font-size="14.00">1</text>
<path fill="none" stroke="black" d="M264.67,-174C264.67,-174 275.33,-174 275.33,-174 280.67,-174 286,-179.33 286,-184.67 286,-184.67 286,-195.33 286,-195.33 286,-200.67 280.67,-206 275.33,-206 275.33,-206 264.67,-206 264.67,-206 259.33,-206 254,-200.67 254,-195.33 254,-195.33 254,-184.67 254,-184.67 254,-179.33 259.33,-174 264.67,-174"/>
</a>
</g>
</g>
<!-- 20 -->
<g id="node17" class="node">
<title>20</title>
<g id="a_node17"><a xlink:title="20: 20">
<path fill="white" stroke="transparent" d="M54.67,-411C54.67,-411 65.33,-411 65.33,-411 70.67,-411 76,-416.33 76,-421.67 76,-421.67 76,-432.33 76,-432.33 76,-437.67 70.67,-443 65.33,-443 65.33,-443 54.67,-443 54.67,-443 49.33,-443 44,-437.67 44,-432.33 44,-432.33 44,-421.67 44,-421.67 44,-416.33 49.33,-411 54.67,-411"/>
<text text-anchor="start" x="55" y="-423.3" font-family="Helvetica,sans-Serif" font-size="14.00">&amp;</text>
<path fill="none" stroke="black" d="M54.67,-411C54.67,-411 65.33,-411 65.33,-411 70.67,-411 76,-416.33 76,-421.67 76,-421.67 76,-432.33 76,-432.33 76,-437.67 70.67,-443 65.33,-443 65.33,-443 54.67,-443 54.67,-443 49.33,-443 44,-437.67 44,-432.33 44,-432.33 44,-421.67 44,-421.67 44,-416.33 49.33,-411 54.67,-411"/>
</a>
</g>
</g>
</g>
</svg>
